<?xml version="1.0" encoding="UTF-8" standalone="no"?>
<!-- Created with Inkscape (http://www.inkscape.org/) -->

<svg
   width="29.525143mm"
   height="28.116531mm"
   viewBox="0 0 29.525143 28.116531"
   version="1.1"
   id="svg1"
   xml:space="preserve"
   sodipodi:docname="difference.svg"
   inkscape:version="1.4 (e7c3feb100, 2024-10-09)"
   xmlns:inkscape="http://www.inkscape.org/namespaces/inkscape"
   xmlns:sodipodi="http://sodipodi.sourceforge.net/DTD/sodipodi-0.dtd"
   xmlns="http://www.w3.org/2000/svg"
   xmlns:svg="http://www.w3.org/2000/svg"><sodipodi:namedview
     id="namedview1"
     pagecolor="#ffffff"
     bordercolor="#000000"
     borderopacity="0.25"
     inkscape:showpageshadow="2"
     inkscape:pageopacity="0.0"
     inkscape:pagecheckerboard="0"
     inkscape:deskcolor="#d1d1d1"
     inkscape:document-units="mm"
     inkscape:zoom="1.0028457"
     inkscape:cx="188.96228"
     inkscape:cy="172.5091"
     inkscape:window-width="1920"
     inkscape:window-height="1007"
     inkscape:window-x="0"
     inkscape:window-y="36"
     inkscape:window-maximized="1"
     inkscape:current-layer="layer1" /><defs
     id="defs1" /><g
     inkscape:label="Layer 1"
     inkscape:groupmode="layer"
     id="layer1"><g
       id="g4"
       transform="translate(-63.665484,-49.268237)"><path
         id="path2-4-8-0"
         style="fill:#00007b;fill-opacity:0.475704;stroke:none;stroke-width:0.264583;stroke-opacity:1"
         d="m 64.075402,60.416097 4.913395,3.556372 a 9.5,9.5 0 0 1 0.998389,-3.540353 z m 21.058146,11.019482 a 9.5,9.5 0 0 1 -3.017387,2.038635 l 4.918046,3.55999 z" /><path
         id="path1-7-8-6"
         style="fill:#00007b;fill-opacity:0.475704;stroke:none;stroke-width:0.264583;stroke-opacity:1"
         d="m 78.43451,49.734202 -1.793172,5.692676 a 9.5,9.5 0 0 1 1.793172,-0.192753 9.5,9.5 0 0 1 1.561662,0.131775 z m 14.345378,10.664982 -5.878195,0.03307 a 9.5,9.5 0 0 1 0.996839,3.505729 z m -21.149097,10.931633 -1.796273,5.703011 4.912879,-3.56154 a 9.5,9.5 0 0 1 -3.116606,-2.141471 z" /><g
         id="g3-9-8-4"
         transform="translate(63.665484,49.268237)"><circle
           style="fill:none;fill-opacity:0.475704;stroke:#000000;stroke-width:0.276378;stroke-opacity:1"
           id="path3-3-6-8"
           cx="14.769026"
           cy="15.465965"
           r="9.5" /><path
           style="fill:none;fill-opacity:0.475704;stroke:#000000;stroke-width:0.264583;stroke-opacity:1"
           d="M 14.769026,0.46596487 6.169026,27.765965 29.114128,11.13137 17.74366,11.194499 Z"
           id="path1-7-8-7"
           sodipodi:nodetypes="ccccc" /><path
           style="fill:none;fill-opacity:0.475704;stroke:#000000;stroke-width:0.264583;stroke-opacity:1"
           d="M 23.369026,27.765965 0.40991825,11.14786 17.74366,11.194499 Z"
           id="path2-4-8-1"
           sodipodi:nodetypes="cccc" /></g></g></g></svg>
