<?xml version="1.0" encoding="UTF-8" standalone="no"?>
<!-- Created with Inkscape (http://www.inkscape.org/) -->

<svg
   width="180"
   height="180"
   viewBox="0 0 47.624994 47.625002"
   version="1.1"
   id="svg1"
   xml:space="preserve"
   inkscape:version="1.4 (e7c3feb100, 2024-10-09)"
   sodipodi:docname="favicon.svg"
   xmlns:inkscape="http://www.inkscape.org/namespaces/inkscape"
   xmlns:sodipodi="http://sodipodi.sourceforge.net/DTD/sodipodi-0.dtd"
   xmlns="http://www.w3.org/2000/svg"
   xmlns:svg="http://www.w3.org/2000/svg"><sodipodi:namedview
     id="namedview1"
     pagecolor="#ffffff"
     bordercolor="#000000"
     borderopacity="0.25"
     inkscape:showpageshadow="2"
     inkscape:pageopacity="0.0"
     inkscape:pagecheckerboard="0"
     inkscape:deskcolor="#d1d1d1"
     inkscape:document-units="px"
     inkscape:zoom="2.0056913"
     inkscape:cx="80.271574"
     inkscape:cy="168.52045"
     inkscape:window-width="1920"
     inkscape:window-height="1007"
     inkscape:window-x="0"
     inkscape:window-y="36"
     inkscape:window-maximized="1"
     inkscape:current-layer="layer1" /><defs
     id="defs1" /><g
     inkscape:label="Layer 1"
     inkscape:groupmode="layer"
     id="layer1"
     transform="translate(-52.459673,-40.704918)"><path
       style="fill:#000000;stroke-width:0.867093"
       d="m 53.711527,81.556042 c 1.295389,5.822743 8.296112,7.800714 14.534046,4.106422 5.976522,-3.539485 8.210471,-10.779097 4.650926,-15.072413 -0.385535,-0.465019 -0.709587,-1.04394 -0.720094,-1.286505 -0.01399,-0.32198 -0.788781,-0.847586 -2.870778,-1.94741 l -2.85166,-1.506395 -2.089539,1.297729 c -1.149241,0.713748 -2.730976,1.632845 -3.514963,2.042441 -5.194295,2.713743 -8.147201,7.829509 -7.137938,12.366131 z m 4.014821,-4.473991 c 1.889094,-4.174193 7.926779,-6.846166 11.348081,-5.022073 4.413997,2.353348 1.494408,9.351689 -4.737679,11.356322 -3.540915,1.138979 -6.705294,-0.01374 -7.302539,-2.660212 -0.24665,-1.092918 -0.08308,-1.961054 0.692137,-3.674037 z M 53.764905,51.391878 c 0.718704,2.972244 2.996754,6.059275 5.632534,7.632781 0.724307,0.432395 3.172856,1.905195 5.441215,3.27289 5.952441,3.588999 26.184314,14.227434 28.758635,15.122027 2.863194,0.994968 4.628183,1.1997 5.307302,0.615613 L 99.41306,77.597868 92.993944,73.43979 c -3.530509,-2.286952 -9.654458,-6.254896 -13.608772,-8.817669 -4.930186,-3.195233 -7.189657,-4.786764 -7.189657,-5.06428 0,-0.222587 0.293684,-0.702666 0.652628,-1.066845 0.830944,-0.84308 1.58133,-2.684207 1.734487,-4.255741 0.511511,-5.24856 -4.443599,-11.188355 -10.355628,-12.413504 -1.84576,-0.382497 -4.538229,-0.181014 -6.109195,0.457166 -3.417055,1.388129 -5.278495,5.285117 -4.352902,9.112961 z m 3.296826,-3.079884 c 0.347062,-1.459665 1.547862,-2.567895 3.208901,-2.961554 5.690083,-1.348529 12.967891,5.829845 10.389642,10.247701 -0.830717,1.423446 -1.991999,1.933935 -4.372542,1.922122 -1.83227,-0.0091 -2.156035,-0.08441 -3.730262,-0.868074 -1.816598,-0.904275 -3.814327,-2.68253 -4.679962,-4.165805 -0.382451,-0.65533 -0.809315,-1.898227 -1.04947,-3.055747 -0.0084,-0.03989 0.09688,-0.543274 0.233693,-1.118643 z m 16.478144,15.350092 c 0.648709,-0.621716 1.637699,-0.237792 1.737108,0.674344 0.09306,0.853912 -0.30222,1.338891 -1.091272,1.338891 -1.054096,0 -1.45206,-1.240549 -0.645836,-2.013235 z m 5.530809,-1.822005 2.193529,1.421394 6.333746,-4.111482 c 13.145241,-8.533104 11.91719,-7.669099 11.440949,-8.049454 -0.620878,-0.495865 -3.154731,-0.252104 -5.330153,0.512756 -1.788582,0.628864 -16.831602,8.360325 -16.831602,8.650728 0,0.08504 0.987093,0.794288 2.193531,1.576058 z"
       id="path1"
       sodipodi:nodetypes="ssscscssscssscssssscsssssssssssssscsssssscsssss" /></g></svg>
