<?xml version="1.0" encoding="UTF-8" standalone="no"?>
<!-- Created with Inkscape (http://www.inkscape.org/) -->

<svg
   width="180"
   height="180"
   viewBox="0 0 47.624994 47.625002"
   version="1.1"
   id="svg1"
   xml:space="preserve"
   inkscape:version="1.4 (e7c3feb100, 2024-10-09)"
   sodipodi:docname="favicon.svg"
   xmlns:inkscape="http://www.inkscape.org/namespaces/inkscape"
   xmlns:sodipodi="http://sodipodi.sourceforge.net/DTD/sodipodi-0.dtd"
   xmlns="http://www.w3.org/2000/svg"
   xmlns:svg="http://www.w3.org/2000/svg"><sodipodi:namedview
     id="namedview1"
     pagecolor="#ffffff"
     bordercolor="#000000"
     borderopacity="0.25"
     inkscape:showpageshadow="2"
     inkscape:pageopacity="0.0"
     inkscape:pagecheckerboard="0"
     inkscape:deskcolor="#d1d1d1"
     inkscape:document-units="px"
     inkscape:zoom="2.0056913"
     inkscape:cx="80.022285"
     inkscape:cy="169.01903"
     inkscape:window-width="1920"
     inkscape:window-height="1007"
     inkscape:window-x="0"
     inkscape:window-y="36"
     inkscape:window-maximized="1"
     inkscape:current-layer="layer1" /><defs
     id="defs1" /><g
     inkscape:label="Layer 1"
     inkscape:groupmode="layer"
     id="layer1"
     transform="translate(-52.459673,-40.704918)"><path
       style="fill:#595962;fill-opacity:1;stroke-width:0.35502"
       d="m 78.02876,86.702376 c -0.02858,-0.167609 -0.07809,-0.811072 -0.109911,-1.429917 -0.03193,-0.618846 -0.07844,-1.233659 -0.103432,-1.366242 l -0.04547,-0.241053 1.131618,-0.15826 1.131631,-0.158249 0.46468,0.332652 c 0.967876,0.69287 2.334137,1.0661 3.924848,1.072168 0.832037,0.0025 2.460522,-0.218681 2.59599,-0.353669 0.03679,-0.03663 -0.287122,-0.732571 -0.719684,-1.546578 -0.777093,-1.462355 -0.784069,-1.48152 -0.584205,-1.604508 0.111298,-0.06845 0.518547,-0.324944 0.905098,-0.569957 0.699369,-0.443331 0.705014,-0.444983 1.159896,-0.340361 0.723525,0.166425 2.012178,0.128957 2.850751,-0.08288 0.903803,-0.228313 2.308047,-0.8885 3.124084,-1.468743 0.492539,-0.350228 0.579277,-0.449387 0.475752,-0.54386 -0.06965,-0.06351 -0.689558,-0.548731 -1.377599,-1.078186 -0.688043,-0.529442 -1.238523,-0.989319 -1.223286,-1.021928 0.01528,-0.03256 0.274245,-0.423634 0.575621,-0.868915 l 0.547958,-0.809592 0.581243,-0.113343 c 0.74523,-0.145297 1.742886,-0.609448 2.474279,-1.151124 0.845562,-0.626221 1.970007,-1.968401 2.467648,-2.945454 l 0.199009,-0.390718 -1.640194,-0.397994 c -0.902102,-0.218891 -1.679334,-0.422821 -1.727197,-0.453161 -0.05125,-0.03256 -0.01041,-0.462361 0.09972,-1.045577 l 0.186687,-0.990397 0.418911,-0.264093 c 0.947928,-0.597571 1.885063,-1.862987 2.37957,-3.213172 0.297002,-0.810874 0.56898,-2.082729 0.56898,-2.66064 0,-0.344912 -0.01249,-0.359947 -0.258777,-0.312353 -1.578991,0.305174 -3.187519,0.562421 -3.234584,0.517307 -0.03228,-0.03095 -0.152603,-0.478235 -0.267349,-0.99395 l -0.208611,-0.937648 0.341869,-0.562583 c 0.600542,-0.9883 0.757471,-1.668603 0.75702,-3.281781 -3.48e-4,-1.403574 -0.151839,-2.307811 -0.542926,-3.241291 L 95.23305,51.750924 93.779439,52.73735 c -0.799481,0.542528 -1.482386,0.975129 -1.517557,0.961341 -0.03517,-0.01381 -0.317087,-0.362635 -0.626469,-0.775207 l -0.562501,-0.750121 0.04465,-1.034712 c 0.05114,-1.184523 -0.121746,-1.998839 -0.673996,-3.174889 -0.323519,-0.688936 -1.299447,-2.116473 -1.709067,-2.499927 -0.293809,-0.275032 -0.250366,-0.321207 -1.305534,1.388355 -0.453572,0.734889 -0.855384,1.336149 -0.892927,1.336149 -0.03748,0 -0.453619,-0.214143 -0.924651,-0.475879 l -0.856414,-0.475891 -0.19372,-0.625852 c -0.106556,-0.344221 -0.316289,-0.836824 -0.466127,-1.094687 -0.399798,-0.688024 -1.407252,-1.728371 -2.207657,-2.27973 -0.648451,-0.446685 -2.221925,-1.27368 -2.291492,-1.204367 -0.01666,0.01665 -0.135596,0.782101 -0.264249,1.701052 -0.128653,0.918952 -0.249312,1.686154 -0.268113,1.704901 -0.01886,0.01875 -0.47419,0.0049 -1.011955,-0.02985 L 77.073916,45.344149 76.55531,44.81293 c -1.296288,-1.327835 -3.012448,-2.016352 -5.309805,-2.130273 -0.939992,-0.04662 -1.113258,-0.03428 -1.071376,0.07609 0.119884,0.316102 0.928157,3.204329 0.903085,3.227047 -0.01528,0.01381 -0.481432,0.17581 -1.035904,0.359922 l -1.008125,0.334749 -0.409263,-0.180399 c -1.159525,-0.511103 -2.933636,-0.625592 -4.371467,-0.282111 -0.863043,0.206176 -2.249146,0.713591 -2.337237,0.85562 -0.03136,0.05057 0.35957,0.585818 0.868805,1.189357 0.509222,0.603529 0.984269,1.171587 1.055665,1.262334 0.116841,0.148517 0.05102,0.239426 -0.658818,0.909887 -0.72113,0.681166 -0.822098,0.745261 -1.180257,0.749209 -1.225286,0.01345 -2.950308,0.644572 -4.078086,1.491855 -0.513145,0.385525 -1.881998,1.687819 -1.881998,1.790505 0,0.02936 0.659442,0.38116 1.465377,0.781707 0.805971,0.400572 1.451738,0.76058 1.435043,0.800047 -0.01666,0.03946 -0.214789,0.513261 -0.440165,1.052902 l -0.409805,0.981135 -0.561042,0.271579 c -0.675201,0.326819 -1.833418,1.379475 -2.347037,2.133124 -0.62648,0.919247 -1.535906,2.975053 -1.383338,3.127086 0.0192,0.01911 0.736726,0.06425 1.594575,0.100396 l 1.559739,0.06561 0.05947,1.169193 0.05947,1.169193 -0.355649,0.402582 c -0.924362,1.046403 -1.426979,2.730164 -1.426897,4.780063 6.9e-5,1.797018 -0.09406,1.699733 1.158275,1.197695 0.577796,-0.23163 1.250647,-0.499904 1.495228,-0.596178 l 0.444664,-0.175033 0.511664,1.072611 0.511664,1.072599 -0.146841,0.44882 c -0.231704,0.70804 -0.206228,2.32279 0.05287,3.354863 0.192876,0.768176 0.936278,2.481303 1.251746,2.884588 0.117582,0.150293 0.226138,0.06228 1.237018,-1.003385 l 1.108144,-1.168132 0.934613,0.768967 c 0.860174,0.707744 0.934913,0.79563 0.938523,1.103579 0.01041,0.894199 0.737479,2.425756 1.666329,3.510503 0.514013,0.600272 2.023459,1.92146 2.195267,1.92146 0.02846,0 0.301295,-0.698013 0.606396,-1.551129 0.44913,-1.255822 0.583095,-1.540177 0.703637,-1.493608 0.31283,0.120866 1.728633,0.513076 1.852068,0.513076 0.07115,0 0.24273,0.179326 0.381183,0.3985 1.013123,1.603731 2.623086,2.65968 4.964673,3.25624 0.40939,0.104337 0.784614,0.189623 0.833853,0.189623 0.04928,0 0.06618,-0.137121 0.0376,-0.304742 z"
       id="path4" /><path
       style="fill:#d2ad00;fill-opacity:1;stroke-width:0.35502"
       d="m 73.612461,74.781378 c -3.700178,-0.963869 -6.653958,-3.903884 -7.666352,-7.630612 -0.227192,-0.836355 -0.249046,-1.068936 -0.249046,-2.651429 0,-1.58248 0.02187,-1.815074 0.249046,-2.651429 1.011642,-3.723941 3.929116,-6.631063 7.666352,-7.639097 0.839337,-0.226402 1.072753,-0.248171 2.660884,-0.248171 1.588143,0 1.821558,0.0217 2.660896,0.248171 3.737617,1.008145 6.659753,3.920324 7.665183,7.639097 0.225665,0.834678 0.247856,1.072131 0.247856,2.651429 0,1.579298 -0.02222,1.816763 -0.247856,2.651429 -1.081037,3.998369 -4.359076,7.038147 -8.411628,7.800231 -1.164489,0.21899 -3.401962,0.136037 -4.575335,-0.169619 z"
       id="path9" /><path
       style="fill:#000002;fill-opacity:1;stroke-width:0.35502"
       d="m 77.597351,70.000978 c 2.689206,-0.679624 4.429731,-3.016974 4.296751,-5.770128 -0.114192,-2.364385 -1.616395,-4.343477 -3.85034,-5.072657 -0.992113,-0.323835 -2.55611,-0.32222 -3.55483,0.0037 -2.413376,0.787515 -3.963026,3.060819 -3.838862,5.631563 0.112688,2.333736 1.549963,4.263262 3.751235,5.036127 0.856679,0.30077 2.364241,0.381627 3.196046,0.171408 z"
       id="path10" /></g></svg>
