<?xml version="1.0" encoding="UTF-8" standalone="no"?>
<!-- Created with Inkscape (http://www.inkscape.org/) -->

<svg
   width="29.525143mm"
   height="28.116531mm"
   viewBox="0 0 29.525143 28.116531"
   version="1.1"
   id="svg1"
   xml:space="preserve"
   inkscape:version="1.4 (e7c3feb100, 2024-10-09)"
   sodipodi:docname="intersection.svg"
   xmlns:inkscape="http://www.inkscape.org/namespaces/inkscape"
   xmlns:sodipodi="http://sodipodi.sourceforge.net/DTD/sodipodi-0.dtd"
   xmlns="http://www.w3.org/2000/svg"
   xmlns:svg="http://www.w3.org/2000/svg"><sodipodi:namedview
     id="namedview1"
     pagecolor="#ffffff"
     bordercolor="#000000"
     borderopacity="0.25"
     inkscape:showpageshadow="2"
     inkscape:pageopacity="0.0"
     inkscape:pagecheckerboard="0"
     inkscape:deskcolor="#d1d1d1"
     inkscape:document-units="mm"
     inkscape:zoom="1.0028457"
     inkscape:cx="188.96228"
     inkscape:cy="172.5091"
     inkscape:window-width="1920"
     inkscape:window-height="1007"
     inkscape:window-x="0"
     inkscape:window-y="36"
     inkscape:window-maximized="1"
     inkscape:current-layer="layer1" /><defs
     id="defs1" /><g
     inkscape:label="Layer 1"
     inkscape:groupmode="layer"
     id="layer1"><g
       id="g6"><g
         id="g3"><circle
           style="fill:none;fill-opacity:0.475704;stroke:#000000;stroke-width:0.276378;stroke-opacity:1"
           id="path3"
           cx="14.769026"
           cy="15.465965"
           r="9.5" /><path
           style="fill:none;fill-opacity:0.475704;stroke:#000000;stroke-width:0.264583;stroke-opacity:1"
           d="M 14.769026,0.46596487 6.169026,27.765965 29.114128,11.13137 17.74366,11.194499 Z"
           id="path1"
           sodipodi:nodetypes="ccccc" /><path
           style="fill:none;fill-opacity:0.475704;stroke:#000000;stroke-width:0.264583;stroke-opacity:1"
           d="M 23.369026,27.765965 0.40991825,11.14786 17.74366,11.194499 Z"
           id="path2"
           sodipodi:nodetypes="cccc" /></g><path
         id="path3-3-7"
         style="fill:#00007b;fill-opacity:0.475704;stroke:none;stroke-width:0.276378;stroke-opacity:1"
         d="M 14.753105,5.9774129 A 9.5,9.5 0 0 0 12.959932,6.170166 l -1.577681,5.008997 -5.0580892,-0.01344 a 9.5,9.5 0 0 0 -0.9983887,3.540352 l 4.0271444,2.914551 -1.4030152,4.453992 a 9.5,9.5 0 0 0 3.1166057,2.140954 l 3.695898,-2.679423 3.691248,2.671672 a 9.5,9.5 0 0 0 3.017387,-2.039152 l -1.497066,-4.410584 4.243151,-3.076298 a 9.5,9.5 0 0 0 -0.996838,-3.506246 l -5.470984,0.03049 -0.0031,-0.0098 h -0.02067 L 16.314766,6.1091878 A 9.5,9.5 0 0 0 14.753105,5.9774129 Z" /></g></g></svg>
