<?xml version="1.0" encoding="UTF-8" standalone="no"?>
<!-- Created with Inkscape (http://www.inkscape.org/) -->

<svg
   width="107.23647mm"
   height="125.3429mm"
   viewBox="0 0 107.23646 125.34291"
   version="1.1"
   id="svg1"
   xml:space="preserve"
   inkscape:version="1.4 (e7c3feb100, 2024-10-09)"
   sodipodi:docname="logo.svg"
   xmlns:inkscape="http://www.inkscape.org/namespaces/inkscape"
   xmlns:sodipodi="http://sodipodi.sourceforge.net/DTD/sodipodi-0.dtd"
   xmlns="http://www.w3.org/2000/svg"
   xmlns:svg="http://www.w3.org/2000/svg"><sodipodi:namedview
     id="namedview1"
     pagecolor="#ffffff"
     bordercolor="#000000"
     borderopacity="0.25"
     inkscape:showpageshadow="2"
     inkscape:pageopacity="0.0"
     inkscape:pagecheckerboard="0"
     inkscape:deskcolor="#d1d1d1"
     inkscape:document-units="mm"
     inkscape:zoom="0.70911897"
     inkscape:cx="198.83829"
     inkscape:cy="407.54798"
     inkscape:window-width="1920"
     inkscape:window-height="1007"
     inkscape:window-x="0"
     inkscape:window-y="36"
     inkscape:window-maximized="1"
     inkscape:current-layer="layer1" /><defs
     id="defs1" /><g
     inkscape:label="Layer 1"
     inkscape:groupmode="layer"
     id="layer1"
     transform="translate(-52.459673,-40.704918)"><path
       style="fill:#000000"
       d="m 52.692911,85.451441 c 1.53739,6.52548 9.84597,8.74217 17.24926,4.60202 7.09304,-3.96666 9.74433,-12.08001 5.5198,-16.89148 -0.45756,-0.52114 -0.84215,-1.16993 -0.85462,-1.44177 -0.0166,-0.36084 -0.93614,-0.94988 -3.40709,-2.18244 l -3.3844,-1.6882 -2.4799,1.45435 c -1.36394,0.79989 -3.24117,1.82991 -4.17162,2.28894 -6.16468,3.04126 -9.66924,8.77444 -8.47143,13.85858 z m 4.76486,-5.01395 c 2.24201,-4.67797 9.40764,-7.67242 13.4681,-5.62818 5.23861,2.63737 1.77359,10.48033 -5.62276,12.7269 -4.20242,1.27644 -7.95796,-0.0154 -8.66678,-2.98127 -0.29273,-1.22482 -0.0986,-2.19773 0.82144,-4.11745 z m -4.70151,-28.79068 c 0.85297,3.33096 3.5566,6.79056 6.68479,8.55397 0.85962,0.48458 3.7656,2.13513 6.45773,3.66789 7.06446,4.02215 31.076,15.94452 34.131249,16.94708 3.39809,1.11505 5.49281,1.34449 6.2988,0.68991 l 0.60346,-0.4901 -7.618319,-4.65991 c -4.19007,-2.56296 -11.45808,-7.00979 -16.15113,-9.88186 -5.85123,-3.58086 -8.53281,-5.36447 -8.53281,-5.67548 0,-0.24945 0.34855,-0.78747 0.77455,-1.1956 0.98618,-0.94483 1.87675,-3.00816 2.05852,-4.76936 0.60707,-5.882 -5.27374,-12.53866 -12.29024,-13.91167 -2.19058,-0.42866 -5.38605,-0.20286 -7.2505,0.51234 -4.05542,1.55566 -6.26461,5.92297 -5.1661,10.21279 z m 3.91273,-3.45159 c 0.4119,-1.63583 1.83703,-2.87781 3.80838,-3.31898 6.75309,-1.51128 15.39052,6.53344 12.33061,11.48448 -0.98591,1.59524 -2.36414,2.16734 -5.18941,2.1541 -2.17457,-0.0102 -2.55882,-0.0946 -4.42714,-0.97284 -2.15597,-1.01341 -4.52691,-3.00628 -5.55426,-4.66857 -0.4539,-0.73442 -0.96051,-2.12732 -1.24553,-3.42454 -0.01,-0.0447 0.11498,-0.60884 0.27735,-1.25365 z m 19.55655,17.20267 c 0.7699,-0.69675 1.94365,-0.26649 2.06163,0.75573 0.11045,0.95697 -0.35868,1.50048 -1.29514,1.50048 -1.25102,0 -1.72333,-1.39027 -0.76649,-2.25621 z m -17.73551,81.935129 c 0.88484,9.08172 7.60918,16.53678 16.53921,18.33648 1.88878,0.38065 5.62835,0.41817 35.054959,0.35171 l 32.94063,-0.0744 1.85208,-0.62587 c 7.34196,-2.48106 12.36953,-7.68713 14.34299,-14.85225 0.44367,-1.61083 0.47368,-3.84876 0.47368,-35.32188 0,-37.883239 0.16248,-34.838009 -2.10346,-39.422919 -2.73373,-5.53144 -7.57085,-9.462 -13.51538,-10.98236 -1.97175,-0.50429 -2.9549,-0.52701 -22.8001,-0.52701 h -20.73949 l -0.649439,0.64943 c -0.6391,0.6391 -0.83827,1.72558 -0.48507,2.64601 0.46122,1.20193 0.471,1.20248 21.608309,1.20248 18.99814,0 20.04405,0.0248 21.99047,0.52267 2.9262,0.74839 5.00913,1.95243 7.33458,4.23976 2.14415,2.109 3.447,4.2797 4.37661,7.29191 0.45929,1.48821 0.48505,3.31438 0.48505,34.380029 0,31.10371 -0.0253,32.89082 -0.48675,34.39583 -1.37941,4.49882 -4.44462,8.20726 -8.39216,10.15325 -3.97857,1.96129 -2.28908,1.87557 -37.06917,1.8807 -33.220509,0.005 -33.282679,0.003 -36.265169,-1.28394 -4.21784,-1.81958 -7.56562,-5.40737 -9.24494,-9.90776 l -0.61048,-1.636 -0.13546,-24.64476 c -0.12927,-23.51971 -0.15785,-24.669499 -0.62591,-25.186569 -0.99322,-1.09719 -3.15654,-0.86201 -3.77696,0.41061 -0.28237,0.57919 -0.374,45.178569 -0.0986,48.004849 z m 24.29957,-83.977029 2.60332,1.59294 7.517,-4.60769 c 15.600999,-9.56295 14.143529,-8.59467 13.578319,-9.02093 -0.73687,-0.55571 -3.74409,-0.28253 -6.32592,0.57464 -2.122719,0.70476 -19.976039,9.36932 -19.976039,9.69477 0,0.0953 1.1715,0.89015 2.60332,1.76627 z"
       id="path1"
       sodipodi:nodetypes="ssscscssscssscssssscsssssssssssssscssssscsscsssssscssscsssssssscsssccscsssss" /></g></svg>
