<?xml version="1.0" encoding="UTF-8" standalone="no"?>
<!-- Created with Inkscape (http://www.inkscape.org/) -->

<svg
   width="100.0001mm"
   height="100.00009mm"
   viewBox="0 0 100.00009 100.0001"
   version="1.1"
   id="svg1"
   xml:space="preserve"
   inkscape:version="1.4 (e7c3feb100, 2024-10-09)"
   sodipodi:docname="logo.svg"
   xmlns:inkscape="http://www.inkscape.org/namespaces/inkscape"
   xmlns:sodipodi="http://sodipodi.sourceforge.net/DTD/sodipodi-0.dtd"
   xmlns="http://www.w3.org/2000/svg"
   xmlns:svg="http://www.w3.org/2000/svg"><sodipodi:namedview
     id="namedview1"
     pagecolor="#ffffff"
     bordercolor="#000000"
     borderopacity="0.25"
     inkscape:showpageshadow="2"
     inkscape:pageopacity="0.0"
     inkscape:pagecheckerboard="0"
     inkscape:deskcolor="#d1d1d1"
     inkscape:document-units="mm"
     inkscape:zoom="1.4203754"
     inkscape:cx="182.69817"
     inkscape:cy="238.66929"
     inkscape:window-width="1920"
     inkscape:window-height="1007"
     inkscape:window-x="0"
     inkscape:window-y="36"
     inkscape:window-maximized="1"
     inkscape:current-layer="layer1" /><defs
     id="defs1" /><g
     inkscape:label="Layer 1"
     inkscape:groupmode="layer"
     id="layer1"
     transform="translate(-55.400929,-11.780185)"><path
       id="path8"
       style="fill:#6a8ddc;stroke:none;stroke-width:0.312106"
       d="m 55.400932,96.780165 c 0.01709,10.029475 4.877499,14.983025 15.000118,15.000115 h 34.99993 34.99993 c 10.12262,-0.0171 14.98304,-4.97064 15.00012,-15.000115 l -0.15606,-34.999933 0.15606,-34.99993 c -0.0171,-10.02948 -4.8775,-14.98302 -15.00012,-15.00012 H 105.40098 70.40105 c -10.122619,0.0171 -14.983029,4.97064 -15.000118,15.00012 l 0.156063,34.99993 z" /><path
       id="path8-8"
       style="fill:#ffffff;fill-opacity:1;stroke:none;stroke-width:0.292298"
       d="m 58.574179,94.558902 c 0.016,9.392958 4.567949,14.032128 14.048138,14.048138 h 32.778663 32.77867 c 9.48018,-0.016 14.03214,-4.65518 14.04813,-14.048138 l -0.14615,-32.77867 0.14615,-32.77867 c -0.016,-9.39296 -4.56795,-14.03213 -14.04813,-14.04814 H 105.40098 72.622317 c -9.480189,0.016 -14.032134,4.65518 -14.048138,14.04814 l 0.146158,32.77867 z" /><path
       style="fill:#595962;fill-opacity:1;stroke-width:0.297204"
       d="m 152.06145,44.637742 c -0.1359,0.0247 -0.65763,0.0675 -1.1594,0.095 -0.50177,0.0276 -1.00027,0.0678 -1.10777,0.0894 l -0.19545,0.0393 -0.12832,-0.9781 -0.12831,-0.97811 0.26972,-0.40164 c 0.56179,-0.83657 0.86441,-2.01748 0.86933,-3.39239 0.002,-0.71916 -0.17731,-2.12672 -0.28676,-2.24381 -0.0297,-0.0318 -0.59398,0.24817 -1.25399,0.62205 -1.1857,0.67167 -1.20124,0.6777 -1.30096,0.50495 -0.0555,-0.0962 -0.26347,-0.4482 -0.46213,-0.78231 -0.35946,-0.60449 -0.3608,-0.60937 -0.27597,-1.00254 0.13494,-0.62537 0.10456,-1.7392 -0.0672,-2.46401 -0.18512,-0.78119 -0.72041,-1.99493 -1.19088,-2.70026 -0.28397,-0.42572 -0.36437,-0.50069 -0.44097,-0.41121 -0.0515,0.0602 -0.44492,0.59601 -0.87421,1.19071 -0.42928,0.5947 -0.80216,1.0705 -0.8286,1.05733 -0.0264,-0.0132 -0.34349,-0.23704 -0.70453,-0.49753 l -0.65643,-0.47362 -0.0919,-0.50239 c -0.11781,-0.64413 -0.49415,-1.50644 -0.93335,-2.13861 -0.50775,-0.73085 -1.59601,-1.70275 -2.38822,-2.13288 l -0.3168,-0.17201 -0.3227,1.41768 c -0.17748,0.77972 -0.34283,1.45151 -0.36743,1.49288 -0.0264,0.0443 -0.37489,0.009 -0.84777,-0.0862 l -0.80303,-0.16136 -0.21413,-0.36208 c -0.48452,-0.81933 -1.51054,-1.62933 -2.60529,-2.05675 -0.65747,-0.25671 -1.68871,-0.49179 -2.15729,-0.49179 -0.27966,0 -0.29185,0.0108 -0.25326,0.22367 0.24744,1.36478 0.45602,2.75509 0.41944,2.79577 -0.0251,0.0279 -0.38776,0.1319 -0.80591,0.23108 l -0.76026,0.18031 -0.45615,-0.29549 c -0.80133,-0.51907 -1.35293,-0.65471 -2.66092,-0.65432 -1.13804,3e-4 -1.87121,0.13124 -2.62809,0.46927 l -0.2233,0.0997 0.79981,1.25641 c 0.43989,0.69102 0.79065,1.28128 0.77947,1.31168 -0.0112,0.0304 -0.29403,0.27407 -0.62855,0.54148 l -0.60821,0.48619 -0.83896,-0.0386 c -0.96043,-0.0442 -1.62069,0.10523 -2.57425,0.58256 -0.5586,0.27963 -1.71607,1.12316 -2.02698,1.47721 -0.223,0.25395 -0.26044,0.2164 1.1257,1.12842 0.59586,0.39204 1.08337,0.73934 1.08337,0.77179 0,0.0324 -0.17363,0.39208 -0.38585,0.79921 l -0.38586,0.74023 -0.50745,0.16744 c -0.2791,0.0921 -0.67851,0.27338 -0.88759,0.40289 -0.55786,0.34556 -1.40139,1.21634 -1.84844,1.90816 -0.36218,0.56048 -1.03272,1.92049 -0.97652,1.98062 0.0135,0.0144 0.63414,0.1172 1.37924,0.2284 0.7451,0.1112 1.36716,0.21549 1.38236,0.23174 0.0152,0.0163 0.004,0.40986 -0.0242,0.87467 l -0.0518,0.8451 -0.43072,0.44825 c -1.07663,1.12043 -1.63489,2.60377 -1.72726,4.58946 -0.0378,0.81247 -0.0278,0.96223 0.0617,0.92603 0.2563,-0.10362 2.59812,-0.80224 2.61654,-0.78057 0.0112,0.0132 0.14255,0.41612 0.29183,0.89537 l 0.27142,0.87136 -0.14627,0.35374 c -0.41441,1.00222 -0.50724,2.53565 -0.22874,3.77842 0.16717,0.74596 0.57859,1.94402 0.69375,2.02016 0.041,0.0271 0.47499,-0.31079 0.96435,-0.75094 0.48935,-0.44014 0.94994,-0.85074 1.02352,-0.91245 0.12042,-0.10099 0.19413,-0.0441 0.73775,0.56944 0.5523,0.6233 0.60427,0.71057 0.60747,1.02014 0.0109,1.05906 0.52263,2.55006 1.20962,3.52484 0.31259,0.44353 1.36851,1.62668 1.45177,1.62668 0.0238,0 0.30905,-0.56998 0.63382,-1.26658 0.32479,-0.69663 0.61669,-1.25479 0.64869,-1.24036 0.032,0.0144 0.41616,0.18565 0.85371,0.38045 l 0.79552,0.35421 0.2202,0.48493 c 0.26499,0.5836 1.1185,1.58469 1.72957,2.02863 0.74534,0.54149 2.41222,1.32754 2.53549,1.19567 0.0155,-0.0166 0.0521,-0.63678 0.0814,-1.37825 l 0.0532,-1.34814 0.948,-0.0514 0.948,-0.0514 0.32642,0.3074 c 0.84844,0.79896 2.21366,1.23339 3.87575,1.23332 1.45705,-6e-5 1.37817,0.0813 0.97111,-1.00114 -0.18781,-0.49941 -0.40533,-1.08098 -0.48339,-1.29238 l -0.14192,-0.38434 0.86969,-0.44225 0.86968,-0.44225 0.36391,0.12692 c 0.57409,0.20027 1.88336,0.17825 2.72018,-0.0457 0.62285,-0.16671 2.01188,-0.80926 2.33887,-1.08193 0.12186,-0.10163 0.0505,-0.19546 -0.81356,-1.0692 l -0.94714,-0.95781 0.62349,-0.80782 c 0.57385,-0.74348 0.64511,-0.80808 0.8948,-0.8112 0.72503,-0.009 1.96684,-0.63743 2.84637,-1.44027 0.48671,-0.44428 1.55795,-1.74895 1.55795,-1.89745 0,-0.0246 -0.56596,-0.26042 -1.25768,-0.52413 -1.01824,-0.3882 -1.2488,-0.50399 -1.21104,-0.60818 0.098,-0.27039 0.41601,-1.49412 0.41601,-1.60081 0,-0.0615 0.1454,-0.2098 0.32311,-0.32947 1.30033,-0.87568 2.15651,-2.26723 2.64021,-4.29115 0.0846,-0.35385 0.15375,-0.67817 0.15375,-0.72073 0,-0.0426 -0.11118,-0.0572 -0.24709,-0.0325 z"
       id="path4" /><path
       id="path8-8-7-0"
       style="fill:#c3c2c2;fill-opacity:1;stroke:none;stroke-width:0.292298"
       d="m 58.409116,89.156849 c 0.06076,16.650321 3.641929,19.425691 17.378784,19.425691 h 29.60388 32.77887 c 9.48019,-0.016 14.03175,-4.65527 14.04774,-14.048242 l -0.14573,-32.778366 0.14418,-16.72197 c -0.0272,0.12585 -0.0318,0.16917 -0.0708,0.33228 -0.4837,2.02392 -1.33982,3.41553 -2.64015,4.29121 -0.17771,0.11967 -0.32349,0.26819 -0.32349,0.32969 0,0.10669 -0.318,1.33003 -0.416,1.60042 -0.0378,0.10419 0.19306,0.22003 1.2113,0.60823 0.69172,0.26371 1.25728,0.49992 1.25728,0.52452 0,0.1485 -1.07081,1.45276 -1.55752,1.89704 -0.87953,0.80284 -2.12131,1.43122 -2.84634,1.44022 -0.24969,0.003 -0.32119,0.0678 -0.89504,0.81132 l -0.62322,0.80771 0.94672,0.95808 c 0.86406,0.87374 0.93576,0.96755 0.8139,1.06918 -0.32699,0.27267 -1.71603,0.9154 -2.33888,1.08211 -0.83682,0.22395 -2.14616,0.24574 -2.72025,0.0455 l -0.3638,-0.12713 -0.86972,0.44235 -0.86971,0.44235 0.14159,0.38448 c 0.0781,0.2114 0.29588,0.79301 0.48369,1.29242 0.40706,1.08244 0.48605,1.00092 -0.971,1.00098 -1.66209,7e-5 -3.02729,-0.43456 -3.87573,-1.23352 l -0.3266,-0.30696 -0.94826,0.0512 -0.94774,0.0512 -0.0532,1.34824 c -0.0293,0.74147 -0.0662,1.36161 -0.0816,1.37821 -0.12327,0.13187 -1.78991,-0.65379 -2.53525,-1.19528 -0.61107,-0.44394 -1.46462,-1.44521 -1.72961,-2.02881 l -0.22014,-0.48473 -0.7953,-0.3545 c -0.43755,-0.1948 -0.82169,-0.36594 -0.85369,-0.38034 -0.032,-0.0144 -0.32427,0.54361 -0.64906,1.24024 -0.32477,0.6966 -0.60975,1.26659 -0.63355,1.26659 -0.0833,0 -1.13951,-1.18325 -1.45211,-1.62678 -0.68699,-0.97478 -1.19833,-2.46579 -1.20923,-3.52485 -0.003,-0.30957 -0.0554,-0.39679 -0.60771,-1.02009 -0.54362,-0.61354 -0.61752,-0.67046 -0.73794,-0.56947 -0.0736,0.0617 -0.53385,0.47246 -1.0232,0.9126 -0.48936,0.44015 -0.92328,0.77796 -0.96428,0.75086 -0.11516,-0.0761 -0.52684,-1.27407 -0.69401,-2.02003 -0.2785,-1.24277 -0.18549,-2.77636 0.22892,-3.77858 l 0.14625,-0.35347 -0.2713,-0.87178 c -0.14928,-0.47925 -0.28077,-0.88184 -0.29197,-0.89504 -0.0153,-0.018 -1.45692,0.41265 -2.14871,0.63407 l 0.046,4.64003 c -0.016,9.39295 -4.56805,14.031723 -14.04824,14.047723 0,0 -20.141842,-0.06088 -29.603873,0 -7.401629,0.04752 -14.945554,-0.105122 -14.875061,19.213198 z m 58.481184,-37.901047 -0.0336,-3.40238 z m -0.0336,-3.40238 c 0.28562,-0.75749 0.69402,-1.40751 1.23145,-1.9668 l 0.43046,-0.44804 0.0517,-0.84542 c 0.0201,-0.33158 0.0182,-0.47576 0.0176,-0.62374 -0.0719,-0.106 -0.11765,-0.18103 -0.18552,-0.28267 -0.15032,-0.0337 -0.5486,-0.10425 -1.19011,-0.19999 -0.21579,-0.0322 -0.21626,-0.0373 -0.39945,-0.0662 z m -0.0439,-4.4328 c 0,0 -1.75585,-0.27653 -2e-5,0 z"
       sodipodi:nodetypes="csccccccsssssssccccccccccssccccccsccccsscscsssscccccccssccccccccscccccsc" /><path
       style="fill:#d2ad00;fill-opacity:1;stroke-width:0.297204"
       d="m 142.39907,48.456162 c -0.78152,3.1982 -3.16533,5.75126 -6.18702,6.62631 -0.67813,0.19637 -0.86671,0.21526 -2.14982,0.21526 -1.2831,0 -1.47169,-0.0189 -2.14982,-0.21526 -3.01943,-0.8744 -5.37657,-3.39608 -6.1939,-6.62631 -0.18357,-0.72547 -0.20122,-0.92722 -0.20122,-2.2999 0,-1.37269 0.0176,-1.57444 0.20122,-2.29991 0.81742,-3.23056 3.17866,-5.75627 6.1939,-6.6253 0.67677,-0.19505 0.8693,-0.21423 2.14982,-0.21423 1.28052,0 1.47306,0.0192 2.14982,0.21423 3.24194,0.93438 5.70664,3.76771 6.32455,7.27048 0.17756,1.00651 0.1103,2.94044 -0.13753,3.95463 z"
       id="path9" /><path
       style="fill:#000002;fill-opacity:1;stroke-width:0.297204"
       d="m 138.51266,45.010782 c -0.55105,-2.32438 -2.44621,-3.82878 -4.67851,-3.71384 -1.91708,0.0987 -3.52176,1.39711 -4.11299,3.32799 -0.26257,0.85752 -0.26126,2.20934 0.003,3.07257 0.63853,2.08597 2.48176,3.42539 4.56616,3.31807 1.89223,-0.0974 3.45672,-1.33969 4.08337,-3.24233 0.24387,-0.74046 0.30943,-2.0435 0.13898,-2.76246 z"
       id="path10" /></g></svg>
