<?xml version="1.0" encoding="UTF-8" standalone="no"?>
<!-- Created with Inkscape (http://www.inkscape.org/) -->

<svg
   width="107.23647mm"
   height="125.3429mm"
   viewBox="0 0 107.23646 125.34291"
   version="1.1"
   id="svg1"
   xml:space="preserve"
   inkscape:version="1.4 (e7c3feb100, 2024-10-09)"
   sodipodi:docname="logo.svg"
   xmlns:inkscape="http://www.inkscape.org/namespaces/inkscape"
   xmlns:sodipodi="http://sodipodi.sourceforge.net/DTD/sodipodi-0.dtd"
   xmlns="http://www.w3.org/2000/svg"
   xmlns:svg="http://www.w3.org/2000/svg"><sodipodi:namedview
     id="namedview1"
     pagecolor="#ffffff"
     bordercolor="#000000"
     borderopacity="0.25"
     inkscape:showpageshadow="2"
     inkscape:pageopacity="0.0"
     inkscape:pagecheckerboard="0"
     inkscape:deskcolor="#d1d1d1"
     inkscape:document-units="mm"
     inkscape:zoom="0.50142283"
     inkscape:cx="717.95694"
     inkscape:cy="406.84226"
     inkscape:window-width="1920"
     inkscape:window-height="1007"
     inkscape:window-x="0"
     inkscape:window-y="36"
     inkscape:window-maximized="1"
     inkscape:current-layer="layer1" /><defs
     id="defs1" /><g
     inkscape:label="Layer 1"
     inkscape:groupmode="layer"
     id="layer1"
     transform="translate(-52.459673,-40.704918)"><path
       style="fill:#000000"
       d="m 52.692911,85.451441 c 1.53739,6.52548 9.84597,8.74217 17.24926,4.60202 7.09304,-3.96666 9.74433,-12.08001 5.5198,-16.89148 -0.45756,-0.52114 -0.84215,-1.16993 -0.85462,-1.44177 -0.0166,-0.36084 -0.93614,-0.94988 -3.40709,-2.18244 l -3.3844,-1.6882 -2.4799,1.45435 c -1.36394,0.79989 -3.24117,1.82991 -4.17162,2.28894 -6.16468,3.04126 -9.66924,8.77444 -8.47143,13.85858 z m 4.76486,-5.01395 c 2.24201,-4.67797 9.40764,-7.67242 13.4681,-5.62818 5.23861,2.63737 1.77359,10.48033 -5.62276,12.7269 -4.20242,1.27644 -7.95796,-0.0154 -8.66678,-2.98127 -0.29273,-1.22482 -0.0986,-2.19773 0.82144,-4.11745 z m -4.70151,-28.79068 c 0.85297,3.33096 3.5566,6.79056 6.68479,8.55397 0.85962,0.48458 3.7656,2.13513 6.45773,3.66789 7.06446,4.02215 31.076,15.94452 34.131249,16.94708 3.39809,1.11505 5.49281,1.34449 6.2988,0.68991 l 0.60346,-0.4901 -7.618319,-4.65991 c -4.19007,-2.56296 -11.45808,-7.00979 -16.15113,-9.88186 -5.85123,-3.58086 -8.53281,-5.36447 -8.53281,-5.67548 0,-0.24945 0.34855,-0.78747 0.77455,-1.1956 0.98618,-0.94483 1.87675,-3.00816 2.05852,-4.76936 0.60707,-5.882 -5.27374,-12.53866 -12.29024,-13.91167 -2.19058,-0.42866 -5.38605,-0.20286 -7.2505,0.51234 -4.05542,1.55566 -6.26461,5.92297 -5.1661,10.21279 z m 3.91273,-3.45159 c 0.4119,-1.63583 1.83703,-2.87781 3.80838,-3.31898 6.75309,-1.51128 15.39052,6.53344 12.33061,11.48448 -0.98591,1.59524 -2.36414,2.16734 -5.18941,2.1541 -2.17457,-0.0102 -2.55882,-0.0946 -4.42714,-0.97284 -2.15597,-1.01341 -4.52691,-3.00628 -5.55426,-4.66857 -0.4539,-0.73442 -0.96051,-2.12732 -1.24553,-3.42454 -0.01,-0.0447 0.11498,-0.60884 0.27735,-1.25365 z m 19.55655,17.20267 c 0.7699,-0.69675 1.94365,-0.26649 2.06163,0.75573 0.11045,0.95697 -0.35868,1.50048 -1.29514,1.50048 -1.25102,0 -1.72333,-1.39027 -0.76649,-2.25621 z m -17.73551,81.935129 c 0.88484,9.08172 7.60918,16.53678 16.53921,18.33648 1.88878,0.38065 5.62835,0.41817 35.054959,0.35171 l 32.94063,-0.0744 1.85208,-0.62587 c 7.34196,-2.48106 12.36953,-7.68713 14.34299,-14.85225 0.44367,-1.61083 0.47368,-3.84876 0.47368,-35.32188 0,-37.883239 0.16248,-34.838009 -2.10346,-39.422919 -2.73373,-5.53144 -7.57085,-9.462 -13.51538,-10.98236 -1.97175,-0.50429 -2.9549,-0.52701 -22.8001,-0.52701 h -20.73949 l -0.649439,0.64943 c -0.6391,0.6391 -0.83827,1.72558 -0.48507,2.64601 0.46122,1.20193 0.471,1.20248 21.608309,1.20248 18.99814,0 20.04405,0.0248 21.99047,0.52267 2.9262,0.74839 5.00913,1.95243 7.33458,4.23976 2.14415,2.109 3.447,4.2797 4.37661,7.29191 0.45929,1.48821 0.48505,3.31438 0.48505,34.380029 0,31.10371 -0.0253,32.89082 -0.48675,34.39583 -1.37941,4.49882 -4.44462,8.20726 -8.39216,10.15325 -3.97857,1.96129 -2.28908,1.87557 -37.06917,1.8807 -33.220509,0.005 -33.282679,0.003 -36.265169,-1.28394 -4.21784,-1.81958 -7.56562,-5.40737 -9.24494,-9.90776 l -0.61048,-1.636 -0.13546,-24.64476 c -0.12927,-23.51971 -0.15785,-24.669499 -0.62591,-25.186569 -0.99322,-1.09719 -3.15654,-0.86201 -3.77696,0.41061 -0.28237,0.57919 -0.374,45.178569 -0.0986,48.004849 z m 24.29957,-83.977029 2.60332,1.59294 7.517,-4.60769 c 15.600999,-9.56295 14.143529,-8.59467 13.578319,-9.02093 -0.73687,-0.55571 -3.74409,-0.28253 -6.32592,0.57464 -2.122719,0.70476 -19.976039,9.36932 -19.976039,9.69477 0,0.0953 1.1715,0.89015 2.60332,1.76627 z"
       id="path1"
       sodipodi:nodetypes="ssscscssscssscssssscsssssssssssssscssssscsscsssssscssscsssssssscsssccscsssss" /><path
       style="fill:#000000;stroke-width:0.511844"
       d="m 111.77391,150.4973 c -0.0412,-0.24207 -0.11237,-1.17143 -0.15825,-2.06523 -0.0459,-0.89381 -0.11286,-1.78178 -0.14882,-1.97327 l -0.0654,-0.34815 1.62859,-0.22858 1.6286,-0.22857 0.66876,0.48046 c 1.39294,1.00072 3.35923,1.53978 5.64853,1.54854 1.19745,0.004 3.54112,-0.31585 3.73607,-0.5108 0.0529,-0.0529 -0.41321,-1.05806 -1.03575,-2.23374 -1.11836,-2.11208 -1.1284,-2.13977 -0.84076,-2.3174 0.16012,-0.0989 0.74628,-0.46932 1.30258,-0.82319 1.00652,-0.6403 1.01464,-0.64269 1.66929,-0.49158 1.04128,0.24037 2.89588,0.18624 4.10273,-0.11972 1.30073,-0.32977 3.32167,-1.28327 4.49609,-2.12132 0.70885,-0.50583 0.83368,-0.64905 0.68469,-0.78551 -0.10024,-0.0918 -0.9924,-0.79253 -1.9826,-1.55722 -0.99021,-0.76468 -1.78245,-1.42888 -1.76053,-1.47599 0.0219,-0.0471 0.3947,-0.61186 0.82843,-1.25497 l 0.7886,-1.1693 0.83651,-0.16369 c 1.07251,-0.20985 2.50831,-0.88022 3.56091,-1.66257 1.2169,-0.90445 2.83518,-2.84298 3.55137,-4.25414 l 0.2864,-0.56432 -2.36051,-0.57482 c -1.29828,-0.31615 -2.41686,-0.61068 -2.48574,-0.65451 -0.0738,-0.047 -0.0148,-0.66778 0.14346,-1.51013 l 0.26867,-1.43044 0.60289,-0.38142 c 1.36424,-0.86308 2.71293,-2.69073 3.42461,-4.6408 0.42743,-1.17116 0.81886,-3.00811 0.81886,-3.84279 0,-0.49815 -0.0179,-0.51987 -0.37242,-0.45112 -2.27245,0.44075 -4.58739,0.8123 -4.65512,0.74714 -0.0465,-0.0447 -0.21963,-0.69071 -0.38477,-1.43556 l -0.30023,-1.35425 0.49201,-0.81255 c 0.86429,-1.4274 1.09014,-2.40997 1.08949,-4.7399 -5.1e-4,-2.02718 -0.21853,-3.33317 -0.78136,-4.6814 l -0.16606,-0.39777 -2.09199,1.42469 c -1.1506,0.78358 -2.13342,1.40839 -2.18404,1.38847 -0.0506,-0.0199 -0.45634,-0.52375 -0.90158,-1.11962 l -0.80954,-1.08341 0.0643,-1.494446 c 0.0736,-1.710808 -0.17521,-2.886937 -0.96999,-4.585498 -0.4656,-0.995047 -1.87014,-3.056839 -2.45965,-3.610665 -0.42283,-0.397223 -0.36032,-0.463925 -1.87888,2.0052 -0.65277,1.061407 -1.23105,1.929822 -1.28507,1.929822 -0.054,0 -0.65284,-0.309303 -1.33074,-0.687324 l -1.23253,-0.687323 -0.27879,-0.903926 c -0.15333,-0.497165 -0.4552,-1.208636 -0.67084,-1.581063 -0.57537,-0.993725 -2.02527,-2.496294 -3.1772,-3.292628 -0.93323,-0.645144 -3.19773,-1.83958 -3.29784,-1.739476 -0.024,0.02399 -0.19515,1.129587 -0.38031,2.456838 -0.18515,1.327242 -0.3588,2.435321 -0.38586,2.462396 -0.0271,0.02707 -0.68244,0.0077 -1.45637,-0.04303 l -1.40715,-0.09221 -0.74635,-0.767234 c -1.86559,-1.917801 -4.33543,-2.912234 -7.64172,-3.076768 -1.35282,-0.06728 -1.60217,-0.04952 -1.5419,0.109931 0.17254,0.456548 1.33577,4.628033 1.29969,4.660846 -0.0219,0.01998 -0.69286,0.253915 -1.49084,0.519826 l -1.450859,0.483478 -0.589004,-0.260549 c -1.668782,-0.738187 -4.222027,-0.903541 -6.291299,-0.407443 -1.242071,0.297776 -3.236914,1.030644 -3.363683,1.235762 -0.04517,0.07309 0.517478,0.846103 1.250345,1.717797 0.732868,0.871685 1.416546,1.69213 1.519288,1.823203 0.16813,0.21451 0.07343,0.345805 -0.948146,1.314162 -1.037833,0.983797 -1.183165,1.076379 -1.698586,1.082083 -1.7634,0.01947 -4.246007,0.930949 -5.869071,2.154689 -0.738528,0.55682 -2.708515,2.43772 -2.708515,2.58603 0,0.0424 0.949025,0.55052 2.108932,1.12904 1.159924,0.57854 2.089277,1.09851 2.06525,1.1555 -0.02399,0.057 -0.309098,0.74131 -0.633481,1.52071 l -0.589772,1.41707 -0.807442,0.39223 c -0.971729,0.47203 -2.638603,1.99239 -3.377789,3.08089 -0.901604,1.32767 -2.21042,4.29688 -1.990838,4.51647 0.02758,0.0276 1.060255,0.0928 2.294856,0.14493 l 2.244727,0.0948 0.08559,1.68866 0.08559,1.68867 -0.511834,0.58146 c -1.330317,1.51132 -2.053672,3.9432 -2.053553,6.90388 1.03e-4,2.59544 -0.135316,2.45492 1.66696,1.72983 0.831554,-0.33455 1.799893,-0.72202 2.15188,-0.86107 l 0.63997,-0.2528 0.736377,1.54918 0.736377,1.54917 -0.211351,0.64822 c -0.333442,1.02263 -0.296778,3.35484 0.07616,4.84547 0.277575,1.10947 1.34747,3.58376 1.801482,4.16622 0.169206,0.21707 0.32545,0.0899 1.780281,-1.44919 l 1.59481,-1.68715 1.345054,1.11063 c 1.23793,1.02219 1.345506,1.14913 1.350697,1.5939 0.01511,1.2915 1.061348,3.50353 2.398136,5.07025 0.739741,0.86697 2.912117,2.77516 3.159372,2.77516 0.0409,0 0.433613,-1.00814 0.872709,-2.2403 0.646365,-1.81378 0.839162,-2.22449 1.01267,-2.15722 0.4502,0.17456 2.48777,0.74103 2.66542,0.74103 0.10246,0 0.34933,0.259 0.54859,0.57556 1.45806,2.31628 3.77507,3.8414 7.14502,4.703 0.58917,0.15064 1.12919,0.27389 1.20005,0.27389 0.0709,0 0.0952,-0.19806 0.0541,-0.44014 z m -6.35789,-17.21159 c -5.3252,-1.39212 -9.576209,-5.6384 -11.033209,-11.02093 -0.326978,-1.20795 -0.358425,-1.54387 -0.358425,-3.82947 0,-2.2856 0.03142,-2.62153 0.358425,-3.82948 1.455916,-5.37852 5.654689,-9.57728 11.033209,-11.0332 1.20795,-0.32698 1.54387,-0.35842 3.82947,-0.35842 2.28561,0 2.62153,0.0314 3.82948,0.35842 5.37907,1.45607 9.58452,5.66216 11.03151,11.0332 0.32477,1.20552 0.35671,1.54848 0.35671,3.82948 0,2.28099 -0.0319,2.62395 -0.35671,3.82947 -1.55579,5.77486 -6.27345,10.16523 -12.10578,11.26592 -1.6759,0.31628 -4.896,0.19647 -6.58468,-0.24499 z m 5.73676,-6.92285 c 3.87023,-0.98159 6.37514,-4.35744 6.18376,-8.33383 -0.16435,-3.4149 -2.32628,-6.27331 -5.5413,-7.32648 -1.42783,-0.46771 -3.67868,-0.46537 -5.11602,0.005 -3.47326,1.13741 -5.70346,4.42077 -5.52477,8.13371 0.16222,3.37063 2.23066,6.15746 5.39867,7.2737 1.23291,0.43441 3.40254,0.55119 4.59966,0.24757 z"
       id="path4"
       sodipodi:nodetypes="ssscccssssssssssssscssscssccssscsscscscssscsssssscssssssscssscscsssssssssssscsssscccsssscccsssscssssssssssssssscsscsscssssssssss" /></g></svg>
