<?xml version="1.0" encoding="UTF-8" standalone="no"?>
<!-- Created with Inkscape (http://www.inkscape.org/) -->

<svg
   width="29.525143mm"
   height="28.116531mm"
   viewBox="0 0 29.525143 28.116531"
   version="1.1"
   id="svg1"
   xml:space="preserve"
   sodipodi:docname="xor.svg"
   inkscape:version="1.4 (e7c3feb100, 2024-10-09)"
   xmlns:inkscape="http://www.inkscape.org/namespaces/inkscape"
   xmlns:sodipodi="http://sodipodi.sourceforge.net/DTD/sodipodi-0.dtd"
   xmlns="http://www.w3.org/2000/svg"
   xmlns:svg="http://www.w3.org/2000/svg"><sodipodi:namedview
     id="namedview1"
     pagecolor="#ffffff"
     bordercolor="#000000"
     borderopacity="0.25"
     inkscape:showpageshadow="2"
     inkscape:pageopacity="0.0"
     inkscape:pagecheckerboard="0"
     inkscape:deskcolor="#d1d1d1"
     inkscape:document-units="mm"
     inkscape:zoom="1.0028457"
     inkscape:cx="188.96228"
     inkscape:cy="172.5091"
     inkscape:window-width="1920"
     inkscape:window-height="1007"
     inkscape:window-x="0"
     inkscape:window-y="36"
     inkscape:window-maximized="1"
     inkscape:current-layer="layer1" /><defs
     id="defs1" /><g
     inkscape:label="Layer 1"
     inkscape:groupmode="layer"
     id="layer1"><g
       id="g3-9-8"><circle
         style="fill:none;fill-opacity:0.475704;stroke:#000000;stroke-width:0.276378;stroke-opacity:1"
         id="path3-3-6"
         cx="14.769026"
         cy="15.465965"
         r="9.5" /><path
         style="fill:none;fill-opacity:0.475704;stroke:#000000;stroke-width:0.264583;stroke-opacity:1"
         d="M 14.769026,0.46596487 6.169026,27.765965 29.114128,11.13137 17.74366,11.194499 Z"
         id="path1-7-8"
         sodipodi:nodetypes="ccccc" /><path
         style="fill:none;fill-opacity:0.475704;stroke:#000000;stroke-width:0.264583;stroke-opacity:1"
         d="M 23.369026,27.765965 0.40991825,11.14786 17.74366,11.194499 Z"
         id="path2-4-8"
         sodipodi:nodetypes="cccc" /></g><g
       id="g15"
       transform="translate(-32.540609,-42.066849)"><path
         style="fill:#00007b;fill-opacity:0.475704;stroke:none;stroke-width:0.276378;stroke-opacity:1"
         d="m 38.862744,53.230859 5.072559,0.01344 1.580782,-5.018298 a 9.5,9.5 0 0 0 -6.653341,5.004862 z"
         id="path14" /><path
         style="fill:#00007b;fill-opacity:0.475704;stroke:none;stroke-width:0.276378;stroke-opacity:1"
         d="m 37.864355,56.771729 a 9.5,9.5 0 0 1 0.998389,-3.54087 L 32.95096,53.21484 Z"
         id="path13" /><path
         style="fill:#00007b;fill-opacity:0.475704;stroke:none;stroke-width:0.276378;stroke-opacity:1"
         d="m 40.506055,64.129936 1.39733,-4.434872 -4.03903,-2.923335 a 9.5,9.5 0 0 0 -0.05426,0.761193 9.5,9.5 0 0 0 2.69596,6.597014 z"
         id="path12" /><path
         style="fill:#00007b;fill-opacity:0.475704;stroke:none;stroke-width:0.276378;stroke-opacity:1"
         d="m 43.623177,66.271407 a 9.5,9.5 0 0 1 -3.117122,-2.141471 l -1.796273,5.703011 z"
         id="path11" /><path
         style="fill:#00007b;fill-opacity:0.475704;stroke:none;stroke-width:0.276378;stroke-opacity:1"
         d="m 50.99172,66.272957 -3.688664,-2.669604 -3.679879,2.668054 a 9.5,9.5 0 0 0 3.686597,0.761711 9.5,9.5 0 0 0 3.681946,-0.760161 z"
         id="path10" /><path
         style="fill:#00007b;fill-opacity:0.475704;stroke:none;stroke-width:0.276378;stroke-opacity:1"
         d="m 54.009106,64.234322 a 9.5,9.5 0 0 1 -3.017386,2.038635 l 4.918046,3.55999 z"
         id="path9" /><path
         style="fill:#00007b;fill-opacity:0.475704;stroke:none;stroke-width:0.276378;stroke-opacity:1"
         d="m 56.773796,56.737105 -4.261239,3.089217 1.496549,4.408 a 9.5,9.5 0 0 0 2.800863,-6.7014 9.5,9.5 0 0 0 -0.03617,-0.795817 z"
         id="path8" /><path
         style="fill:#00007b;fill-opacity:0.475704;stroke:none;stroke-width:0.276378;stroke-opacity:1"
         d="m 55.776957,53.230859 a 9.5,9.5 0 0 1 0.996839,3.506246 l 4.881355,-3.538802 z"
         id="path7" /><path
         style="fill:#00007b;fill-opacity:0.475704;stroke:none;stroke-width:0.276378;stroke-opacity:1"
         d="m 48.871436,48.164502 1.412833,5.096846 5.492688,-0.03049 a 9.5,9.5 0 0 0 -6.905521,-5.066356 z"
         id="path6" /><path
         style="fill:#00007b;fill-opacity:0.475704;stroke:none;stroke-width:0.276378;stroke-opacity:1"
         d="m 47.309774,42.532804 -1.793689,5.693193 a 9.5,9.5 0 0 1 1.793689,-0.19327 9.5,9.5 0 0 1 1.561662,0.131775 z"
         id="path3-3-6-4" /></g></g></svg>
